<?xml version="1.0" standalone="no"?>
<!DOCTYPE svg PUBLIC "-//W3C//DTD SVG 20010904//EN"
 "http://www.w3.org/TR/2001/REC-SVG-20010904/DTD/svg10.dtd">
<svg version="1.0" xmlns="http://www.w3.org/2000/svg"
 width="445.000000pt" height="389.000000pt" viewBox="0 0 445.000000 389.000000"
 preserveAspectRatio="xMidYMid meet">

<g transform="translate(0.000000,389.000000) scale(0.100000,-0.100000)"
fill="#000000" stroke="none">
<path d="M0 1945 l0 -1945 2225 0 2225 0 0 1945 0 1945 -2225 0 -2225 0 0
-1945z m3158 1624 c14 -5 31 -27 43 -54 23 -51 18 -79 -25 -165 -18 -35 -25
-69 -30 -150 -4 -65 -12 -112 -21 -127 -8 -12 -16 -48 -16 -80 -1 -32 -3 -49
-6 -38 -10 46 -13 51 -23 35 -15 -23 -12 -57 5 -64 10 -3 15 -19 15 -42 0 -21
-3 -34 -7 -31 -3 4 -12 -1 -19 -11 -12 -15 -13 -9 -14 41 0 31 -4 57 -10 57
-5 0 -10 -5 -10 -12 0 -6 -3 -9 -6 -6 -3 3 -1 14 5 25 32 59 57 133 31 93 -8
-13 -10 -12 -10 3 0 11 -8 17 -21 17 -20 0 -21 -4 -18 -162 2 -153 0 -168 -25
-242 -14 -43 -26 -97 -26 -119 0 -38 1 -39 14 -21 8 10 18 16 22 12 4 -4 1
-15 -7 -24 -8 -9 -20 -29 -26 -43 l-12 -26 0 25 c1 14 0 39 -1 55 -2 30 -2 30
-10 5 -5 -14 -16 -60 -25 -102 -9 -43 -22 -84 -29 -91 -21 -20 -30 -57 -14
-57 7 -1 0 -8 -17 -17 -48 -26 -86 -61 -72 -67 6 -2 -10 -2 -38 1 -60 7 -62 8
-45 28 7 9 15 13 18 11 2 -3 13 -1 23 4 11 6 20 6 23 1 4 -5 0 -11 -6 -14 -7
-2 -10 -8 -6 -12 10 -10 40 14 32 26 -3 5 1 9 9 9 20 0 60 67 44 74 -7 2 -5 5
4 5 9 1 24 12 33 26 20 30 20 35 2 35 -17 0 -18 37 -2 60 26 36 38 65 41 101
4 43 -10 52 -24 17 -10 -26 -61 -88 -61 -74 0 9 39 77 50 86 16 14 30 66 30
110 0 53 8 83 20 75 4 -3 10 2 13 10 4 10 1 12 -10 8 -9 -3 -14 -2 -12 3 2 5
11 26 19 47 16 42 30 48 31 15 1 -13 7 6 14 42 7 36 9 70 5 75 -5 6 -11 26
-15 45 -6 31 -13 39 -60 60 -37 17 -55 31 -55 44 0 17 2 17 24 2 24 -15 25
-15 31 13 6 29 53 71 80 71 9 0 30 15 47 33 17 17 28 27 24 20 -4 -7 2 -21 14
-33 15 -15 20 -33 20 -71 0 -33 4 -48 11 -43 6 3 8 16 5 29 -3 12 -2 44 3 69
5 25 5 46 0 46 -5 0 -6 20 -2 45 5 38 3 45 -11 45 -11 0 -16 -9 -17 -27 0 -27
-1 -27 -9 -5 -10 23 -40 31 -40 10 0 -14 -72 58 -88 89 -21 38 -14 87 18 131
24 33 37 42 59 42 17 0 33 5 36 10 6 10 37 6 83 -11z m-1145 -133 c47 -20 67
-48 88 -123 21 -79 23 -100 5 -58 l-13 30 -12 -23 c-6 -12 -10 -26 -7 -31 3
-4 1 -21 -4 -37 -7 -24 -8 -25 -9 -6 -1 26 1 25 -38 12 -28 -10 -29 -13 -27
-68 1 -31 0 -41 -2 -22 -8 72 -13 80 -43 80 -20 0 -31 -6 -34 -17 -4 -14 -5
-13 -6 4 0 11 -17 37 -37 57 -35 35 -36 39 -31 88 8 63 30 98 61 98 13 0 29 7
36 15 15 19 32 19 73 1z m984 -128 c-3 -8 -6 -5 -6 6 -1 11 2 17 5 13 3 -3 4
-12 1 -19z m-1441 -173 c-6 -52 -22 -72 -78 -97 -16 -7 -28 -21 -28 -30 0 -29
-18 -30 -22 -1 -2 21 -10 29 -35 35 -19 5 -33 15 -33 23 0 21 27 19 39 -2 9
-16 12 -16 21 -3 6 8 9 29 6 47 -5 36 12 56 62 74 22 8 32 17 32 32 1 21 1 21
21 -3 18 -21 20 -34 15 -75z m-825 15 c5 -22 2 -47 -7 -69 -14 -33 -11 -58 4
-34 6 9 16 5 37 -13 29 -25 29 -26 3 -10 -37 22 -45 20 -22 -5 19 -22 19 -22
-3 -10 -18 9 -23 9 -23 -1 -1 -7 -7 -2 -14 11 -9 15 -16 20 -20 12 -10 -16 45
-90 72 -97 15 -4 20 -9 12 -14 -7 -4 10 -16 42 -29 56 -23 112 -60 90 -61 -7
0 -30 12 -51 26 -22 14 -61 32 -88 39 -26 7 -42 14 -34 14 8 1 -3 15 -24 31
-21 17 -33 30 -26 30 14 0 14 12 -1 32 -11 13 -22 15 -62 9 -41 -7 -52 -5 -67
10 -27 27 -24 36 10 31 24 -3 29 0 35 25 10 38 42 71 77 78 16 4 29 13 29 22
0 28 24 7 31 -27z m1196 -32 c-3 -7 -5 -2 -5 12 0 14 2 19 5 13 2 -7 2 -19 0
-25z m408 -62 c-3 -16 -5 -38 -5 -50 0 -16 -14 -28 -59 -49 -33 -15 -62 -35
-65 -43 -3 -9 -6 -83 -6 -165 0 -111 3 -149 12 -149 7 0 3 -9 -9 -21 -23 -24
-66 -19 -56 6 3 8 10 12 16 8 6 -3 7 -1 3 5 -11 18 -17 322 -7 322 5 0 12 -8
14 -17 4 -14 5 -12 6 5 0 12 -4 22 -10 22 -7 0 -17 7 -24 16 -10 14 -7 26 13
63 31 57 59 80 95 81 19 0 27 5 27 18 0 32 14 34 38 5 16 -20 21 -36 17 -57z
m-1540 15 c-6 -5 -25 10 -25 20 0 5 6 4 14 -3 8 -7 12 -15 11 -17z m2001 -18
c-10 -10 -19 5 -10 18 6 11 8 11 12 0 2 -7 1 -15 -2 -18z m73 -26 c0 -21 -1
-21 -9 -2 -12 28 -12 37 0 30 6 -3 10 -16 9 -28z m-179 3 c-6 -11 -13 -20 -16
-20 -2 0 0 9 6 20 6 11 13 20 16 20 2 0 0 -9 -6 -20z m88 -22 c-11 -31 -38
-79 -38 -66 0 9 41 98 45 98 2 0 -1 -15 -7 -32z m-1281 -10 c-3 -7 -5 -2 -5
12 0 14 2 19 5 13 2 -7 2 -19 0 -25z m-17 -2 c0 -8 -4 -18 -10 -21 -5 -3 -10
3 -10 14 0 12 5 21 10 21 6 0 10 -6 10 -14z m-600 -36 c0 6 27 -21 60 -59 33
-38 70 -77 82 -85 21 -15 21 -16 3 -16 -19 0 -19 0 0 -13 11 -7 33 -14 50 -15
20 -2 37 -12 54 -35 14 -17 43 -49 66 -69 22 -21 36 -38 32 -38 -16 0 -102 65
-105 80 -4 15 -21 30 -36 30 -4 0 -5 -7 -2 -16 3 -8 2 -12 -4 -9 -6 3 -10 12
-10 19 0 6 -18 23 -40 36 -22 14 -40 28 -40 33 0 4 -10 7 -21 7 -17 0 -19 3
-11 13 22 27 -52 110 -121 136 -16 6 -25 16 -22 21 4 6 18 2 36 -10 16 -12 29
-16 29 -10z m1771 3 c-12 -20 -14 -14 -5 12 4 9 9 14 11 11 3 -2 0 -13 -6 -23z
m-2036 7 c3 -6 -1 -7 -9 -4 -18 7 -21 14 -7 14 6 0 13 -4 16 -10z m895 -16 c0
-8 -4 -12 -10 -9 -5 3 -10 10 -10 16 0 5 5 9 10 9 6 0 10 -7 10 -16z m390 4
c0 -7 3 -24 6 -38 4 -18 1 -16 -10 9 -19 39 -19 41 -6 41 6 0 10 -6 10 -12z
m-1236 -7 c4 -5 -3 -7 -14 -4 -23 6 -26 13 -6 13 8 0 17 -4 20 -9z m1649 -23
c-9 -49 -22 -69 -23 -35 0 26 15 67 25 67 3 0 2 -15 -2 -32z m-276 -20 c-3 -7
-5 -2 -5 12 0 14 2 19 5 13 2 -7 2 -19 0 -25z m810 -25 c-3 -10 -5 -4 -5 12 0
17 2 24 5 18 2 -7 2 -21 0 -30z m-808 -33 c0 -10 -3 -8 -9 5 -12 27 -12 43 0
25 5 -8 9 -22 9 -30z m213 8 c-9 -9 -12 -7 -12 12 0 19 3 21 12 12 9 -9 9 -15
0 -24z m-35 -30 c-3 -8 -6 -5 -6 6 -1 11 2 17 5 13 3 -3 4 -12 1 -19z m-650
-10 c-3 -8 -6 -5 -6 6 -1 11 2 17 5 13 3 -3 4 -12 1 -19z m1521 -46 c-4 -2 -8
-17 -8 -33 0 -16 -4 -29 -8 -29 -5 0 -4 26 2 57 8 46 11 53 16 33 4 -14 3 -26
-2 -28z m-1603 -18 c9 -50 1 -52 -12 -4 -5 22 -7 40 -3 40 4 0 11 -16 15 -36z
m780 -24 c4 -19 13 -45 21 -57 16 -26 19 -67 4 -58 -6 4 -10 14 -9 23 3 22
-10 52 -22 52 -5 0 -9 -21 -9 -46 0 -41 -2 -44 -15 -30 -14 13 -14 25 -3 96
12 80 20 85 33 20z m-188 3 c-3 -10 -5 -4 -5 12 0 17 2 24 5 18 2 -7 2 -21 0
-30z m-673 1 c3 -8 2 -12 -4 -9 -6 3 -10 10 -10 16 0 14 7 11 14 -7z m554 -6
c7 -7 12 -42 12 -87 0 -42 4 -92 9 -111 5 -19 11 -52 15 -73 4 -32 3 -37 -9
-27 -9 7 -12 22 -9 38 3 15 1 38 -5 52 -9 24 -10 24 -10 -8 -1 -40 -17 -34
-37 14 -8 19 -21 34 -29 34 -16 0 -20 -16 -6 -24 5 -3 14 -21 20 -38 l11 -33
-20 25 c-15 20 -20 21 -20 8 0 -34 -20 -28 -36 11 -10 26 -25 43 -45 51 -29
12 -40 40 -16 40 7 0 18 15 25 33 12 33 66 77 95 77 9 0 17 7 17 15 0 18 21
20 38 3z m846 -13 c9 -13 16 -32 16 -41 0 -13 3 -14 15 -4 17 14 21 45 4 34
-8 -4 -8 0 0 15 14 25 23 28 14 4 -4 -11 -3 -14 6 -9 8 5 7 -4 -3 -29 -9 -21
-16 -47 -16 -59 0 -20 1 -20 21 4 19 23 20 23 9 2 -22 -45 -59 -92 -64 -83 -4
5 1 16 9 24 8 9 15 24 15 34 -1 21 -29 -9 -86 -92 -19 -27 -35 -45 -35 -40 -1
6 -2 24 -3 40 -1 25 -5 30 -26 31 -14 0 -35 7 -47 15 -23 14 -31 39 -13 39 6
0 10 6 10 13 0 18 38 57 55 57 11 0 15 -14 16 -52 1 -54 3 -52 13 13 4 24 14
40 31 49 16 8 25 22 25 37 0 30 14 29 34 -2z m-781 -94 c10 -17 13 -31 7 -31
-14 0 -37 39 -45 75 -6 28 -6 29 7 9 7 -12 21 -35 31 -53z m1034 47 c-3 -8 -6
-5 -6 6 -1 11 2 17 5 13 3 -3 4 -12 1 -19z m-1617 -9 c0 -6 -4 -7 -10 -4 -5 3
-10 11 -10 16 0 6 5 7 10 4 6 -3 10 -11 10 -16z m-147 -52 c40 -35 49 -54 18
-37 -34 18 -46 12 -25 -13 10 -13 4 -8 -13 10 -30 30 -45 73 -25 73 5 0 25
-15 45 -33z m101 17 c3 -8 2 -12 -4 -9 -6 3 -10 10 -10 16 0 14 7 11 14 -7z
m2100 -26 c31 -44 12 -119 -38 -152 -29 -19 -79 -21 -125 -5 -30 11 -59 45
-47 57 3 3 6 0 6 -6 0 -18 26 -14 41 5 12 15 12 16 -8 11 -21 -6 -22 -5 -9 26
14 35 47 55 100 58 21 2 36 8 36 16 0 20 28 14 44 -10z m-2130 -3 c11 -8 15
-15 10 -15 -6 0 -19 7 -30 15 -10 8 -14 14 -9 14 6 0 19 -6 29 -14z m244 -25
c7 -11 11 -20 9 -20 -2 0 -12 9 -22 20 -10 11 -14 20 -9 20 5 0 15 -9 22 -20z
m1403 -13 c-8 -8 -11 -7 -11 4 0 20 13 34 18 19 3 -7 -1 -17 -7 -23z m-1913
-11 c13 -30 1 -85 -27 -125 l-22 -31 28 -25 c21 -18 24 -24 11 -25 -9 0 -25
11 -36 25 -18 22 -25 25 -61 19 -30 -5 -48 -2 -66 10 -38 25 -32 40 15 32 l41
-6 -17 25 c-16 25 -16 26 5 32 16 4 19 9 11 18 -7 9 -6 15 2 22 27 21 50 22
76 5 25 -16 26 -16 18 3 -5 11 -11 28 -13 38 -8 26 22 12 35 -17z m589 -28
c-3 -7 -5 -2 -5 12 0 14 2 19 5 13 2 -7 2 -19 0 -25z m893 -8 c-6 -11 -15 -18
-21 -15 -5 4 -1 16 8 30 21 27 30 16 13 -15z m220 20 c0 -6 -9 -29 -20 -51
-12 -22 -18 -44 -14 -50 3 -6 -4 -17 -16 -26 -12 -8 -25 -25 -30 -37 -8 -20
-9 -19 -9 6 -1 15 3 29 8 33 11 6 61 109 61 124 0 6 5 11 10 11 6 0 10 -5 10
-10z m-1001 -47 c13 -27 32 -66 42 -88 l20 -40 -31 35 c-16 19 -30 38 -30 43
0 4 -11 20 -25 35 -25 27 -31 43 -18 55 13 13 20 6 42 -40z m-624 -12 c-7 -6
-55 21 -55 31 0 5 13 1 30 -8 16 -10 27 -20 25 -23z m512 -18 c-3 -10 -5 -4
-5 12 0 17 2 24 5 18 2 -7 2 -21 0 -30z m-30 -54 c12 -11 19 -27 16 -34 -7
-19 -63 -8 -83 15 -8 10 -33 23 -55 30 -33 11 -36 14 -20 20 11 4 22 3 23 -1
6 -15 22 -10 22 7 0 10 6 14 14 11 10 -4 13 -1 9 10 -5 14 16 -3 74 -58z m100
49 c-3 -8 -6 -5 -6 6 -1 11 2 17 5 13 3 -3 4 -12 1 -19z m155 -33 c19 -26 5
-30 -21 -7 -17 14 -28 29 -25 34 6 9 31 -7 46 -27z m-776 0 c16 -12 16 -14 3
-15 -9 0 -22 7 -29 15 -16 19 0 19 26 0z m1411 -7 c-3 -8 -6 -5 -6 6 -1 11 2
17 5 13 3 -3 4 -12 1 -19z m413 12 c0 -5 -5 -10 -11 -10 -5 0 -7 5 -4 10 3 6
8 10 11 10 2 0 4 -4 4 -10z m-95 -30 c2 -22 -53 -70 -79 -70 -9 0 -16 -7 -16
-15 0 -12 5 -13 26 -4 15 5 28 8 30 6 8 -8 -57 -46 -97 -57 -24 -7 -49 -16
-56 -22 -8 -6 -18 -6 -30 1 -17 10 -17 11 2 16 12 4 25 16 30 27 13 28 38 37
28 11 -6 -16 -5 -17 13 -3 10 8 31 28 46 45 16 16 28 24 28 17 0 -7 5 -10 11
-7 5 4 8 12 6 18 -5 13 43 70 52 62 2 -3 5 -14 6 -25z m-62 5 c-3 -9 -8 -14
-10 -11 -3 3 -2 9 2 15 9 16 15 13 8 -4z m-786 -17 c-3 -8 -6 -5 -6 6 -1 11 2
17 5 13 3 -3 4 -12 1 -19z m573 12 c0 -5 -4 -10 -10 -10 -5 0 -10 5 -10 10 0
6 5 10 10 10 6 0 10 -4 10 -10z m830 6 c0 -3 -4 -8 -10 -11 -5 -3 -10 -1 -10
4 0 6 5 11 10 11 6 0 10 -2 10 -4z m-1220 -23 c0 -28 -17 -50 -29 -38 -8 8 -6
18 5 33 18 27 24 28 24 5z m815 7 c-3 -5 -11 -10 -16 -10 -6 0 -7 5 -4 10 3 6
11 10 16 10 6 0 7 -4 4 -10z m-1419 -38 c-4 -3 -14 2 -24 12 -16 18 -16 18 6
6 13 -6 21 -14 18 -18z m874 4 c0 -3 -4 -8 -10 -11 -5 -3 -10 -1 -10 4 0 6 5
11 10 11 6 0 10 -2 10 -4z m47 -29 c-2 -18 -9 -42 -16 -53 -12 -19 -12 -19 -7
1 2 11 7 35 11 53 9 42 17 41 12 -1z m743 13 c0 -5 -5 -10 -11 -10 -5 0 -7 5
-4 10 3 6 8 10 11 10 2 0 4 -4 4 -10z m-240 -8 c0 -10 -44 -32 -63 -32 -7 0 2
9 18 19 34 22 45 25 45 13z m-570 -11 c0 -5 -7 -12 -16 -15 -14 -5 -15 -4 -4
9 14 17 20 19 20 6z m1282 0 c84 -34 103 -114 44 -186 -19 -23 -38 -53 -41
-66 -6 -24 -55 -68 -55 -50 0 6 6 14 13 18 20 12 28 53 11 53 -8 0 -17 -6 -20
-14 -3 -8 -21 -17 -41 -21 -20 -3 -53 -17 -74 -31 -22 -14 -41 -20 -44 -14 -3
6 -1 10 4 10 6 0 11 8 11 19 0 10 7 24 15 31 17 14 11 50 -12 87 -19 29 -9 73
25 109 53 57 110 76 164 55z m-2667 -11 c3 -6 -1 -7 -9 -4 -18 7 -21 14 -7 14
6 0 13 -4 16 -10z m669 -5 c29 -22 16 -24 -24 -4 -25 13 -29 18 -15 18 11 0
29 -6 39 -14z m192 -36 c3 -5 17 -9 32 -10 15 0 21 -3 15 -6 -10 -3 -9 -8 2
-20 26 -25 17 -30 -62 -29 -43 1 -68 2 -55 4 29 4 28 16 -3 30 -24 11 -25 12
-8 30 18 18 68 19 79 1z m724 11 c0 -5 -5 -10 -11 -10 -5 0 -7 5 -4 10 3 6 8
10 11 10 2 0 4 -4 4 -10z m-399 -54 c12 -13 12 -29 -1 -21 -5 3 -10 -3 -10
-15 0 -20 1 -21 18 -4 16 16 17 16 20 1 2 -9 10 -17 18 -17 8 0 14 -4 14 -10
0 -6 10 -5 26 2 20 9 27 9 34 -2 7 -11 18 -11 67 -1 119 26 111 25 88 7 -20
-15 -19 -15 7 -16 19 0 26 -4 22 -14 -3 -8 -13 -12 -25 -9 -11 3 -19 0 -19 -7
0 -9 -10 -11 -30 -6 -19 3 -29 2 -25 -4 3 -6 18 -11 33 -11 21 -1 23 -2 7 -6
-11 -3 -26 -10 -32 -15 -9 -7 -13 -6 -13 3 0 11 -2 11 -10 -1 -7 -12 -13 -12
-33 -1 -14 7 -31 11 -39 8 -9 -4 -7 -6 5 -6 10 -1 15 -5 12 -11 -9 -14 -21
-12 -39 6 -15 14 -16 14 -16 -4 0 -22 32 -32 87 -28 30 2 31 1 26 -28 -5 -25
-4 -28 11 -23 10 4 21 7 26 7 4 0 6 9 3 20 -3 11 -10 20 -15 20 -6 0 -5 7 2
15 7 8 17 15 22 15 6 0 5 -7 -2 -15 -9 -10 -9 -15 -1 -15 6 0 11 4 11 8 0 18
43 53 57 48 9 -4 21 -2 28 4 10 8 15 6 20 -10 l6 -20 31 21 c24 18 32 19 39 8
4 -8 4 -16 -2 -20 -6 -3 2 -10 17 -13 20 -5 24 -10 15 -16 -10 -6 -9 -10 5
-19 17 -9 17 -10 -7 -11 -14 0 -31 6 -38 13 -10 10 -15 8 -27 -7 -13 -18 -11
-21 12 -37 37 -24 15 -33 -62 -24 -63 6 -64 6 -64 -18 0 -19 8 -26 40 -37 22
-7 47 -13 55 -13 8 0 15 -7 15 -15 0 -10 -8 -13 -25 -10 -28 6 -31 -1 -12 -22
10 -12 9 -12 -6 -1 -24 19 -32 7 -19 -26 6 -15 14 -43 17 -60 4 -18 11 -33 16
-33 9 0 7 -35 -3 -46 -4 -3 -12 5 -19 18 -15 30 -12 27 -48 38 l-32 9 21 -36
c11 -19 19 -37 17 -39 -9 -9 -37 9 -42 27 -4 10 -11 19 -16 19 -6 0 -8 4 -5 9
3 5 0 11 -8 14 -19 8 -29 -34 -16 -69 12 -32 6 -42 -15 -24 -11 9 -15 9 -15 1
0 -25 -18 0 -23 33 -8 49 1 80 19 65 11 -9 14 -5 14 25 0 39 21 50 39 19 5
-10 13 -15 17 -11 4 5 13 3 21 -4 7 -6 16 -8 20 -5 5 6 -7 28 -41 71 -16 19
-36 14 -36 -10 0 -8 -5 -14 -11 -14 -5 0 -8 4 -4 9 3 5 1 12 -5 16 -5 3 -10 1
-10 -4 0 -8 -7 -7 -20 1 -16 10 -22 10 -32 -1 -10 -11 -10 -12 0 -7 8 5 12 0
12 -12 0 -24 -25 -36 -39 -19 -5 7 -14 25 -20 40 -15 38 -33 35 -19 -3 5 -17
7 -37 4 -46 -3 -8 -2 -13 2 -10 5 3 16 -10 25 -29 15 -31 15 -34 0 -28 -13 5
-15 2 -11 -15 4 -12 2 -20 -3 -16 -5 3 -10 -14 -10 -38 -1 -34 -3 -28 -10 26
-4 39 -5 74 -2 80 3 5 1 6 -4 3 -7 -4 -14 8 -17 29 -4 19 -14 38 -22 41 -7 3
-14 13 -14 22 0 14 2 14 11 1 8 -12 9 -10 5 10 -3 14 -6 31 -6 38 0 7 -4 11
-9 7 -5 -3 -11 9 -13 27 -2 18 -7 31 -13 28 -5 -3 -8 -13 -7 -23 2 -9 -4 -24
-13 -33 -11 -11 -14 -26 -9 -49 7 -36 -9 -55 -24 -28 -9 15 -13 12 -31 -18
-12 -19 -26 -50 -32 -69 -17 -52 -30 -60 -15 -9 7 24 11 64 8 88 l-4 43 -24
-38 c-56 -93 -68 -124 -81 -199 -21 -124 -21 -120 4 -117 26 4 41 -17 22 -30
-11 -8 -10 -9 3 -5 17 6 28 -11 28 -44 0 -17 -3 -17 -20 -7 -26 16 -32 8 -38
-51 -4 -42 -2 -50 14 -54 11 -2 7 -3 -8 -1 -22 3 -28 -1 -28 -16 0 -21 9 -25
26 -12 5 4 6 3 2 -3 -14 -17 -8 -25 17 -25 14 0 25 -4 25 -10 0 -5 -11 -10
-24 -10 -30 0 -40 -14 -28 -36 11 -20 4 -56 -9 -48 -5 3 -9 -2 -9 -11 0 -11 5
-15 15 -12 8 4 17 1 21 -5 4 -7 3 -8 -5 -4 -6 4 -14 0 -17 -8 -3 -9 -14 -16
-25 -16 -13 0 -19 -9 -23 -32 -32 -228 -40 -269 -52 -279 -12 -9 -13 -6 -8 22
l7 34 -33 -30 -33 -30 36 49 c28 36 37 59 37 87 0 21 -4 41 -10 44 -5 3 -10 1
-10 -5 0 -6 -4 -8 -10 -5 -6 4 -7 -1 -3 -11 5 -13 3 -15 -7 -9 -8 5 -11 4 -6
-3 3 -6 -3 -38 -14 -72 -11 -34 -20 -67 -18 -73 1 -7 -6 -33 -16 -59 -10 -26
-16 -54 -12 -63 6 -17 -32 -79 -86 -141 -17 -19 -29 -36 -27 -38 2 -3 33 -10
69 -16 118 -22 123 -34 38 -94 -35 -25 -71 -51 -81 -58 -16 -12 -16 -17 -2
-68 17 -65 19 -78 6 -64 -6 5 -14 27 -20 49 -5 22 -13 50 -16 62 -6 18 4 30
59 73 68 53 79 70 49 70 -10 1 -43 3 -73 6 -50 5 -57 3 -79 -20 -13 -14 -25
-37 -27 -51 -2 -27 -30 -65 -46 -65 -4 0 -17 9 -28 20 -20 20 -20 20 1 57 31
56 41 66 49 52 10 -15 30 -3 30 18 0 9 -6 13 -15 9 -8 -3 -15 -1 -15 5 0 5 7
12 15 15 8 4 15 17 15 30 0 14 9 34 20 46 10 11 22 34 25 50 5 23 11 27 26 23
15 -5 23 3 38 37 70 156 114 278 110 306 -5 34 12 116 21 101 7 -11 10 -9 15
6 4 11 11 30 16 43 5 13 9 32 9 42 0 21 20 28 20 8 0 -8 7 -4 15 6 8 11 13 28
10 37 -3 10 -1 20 5 24 13 8 13 45 0 45 -5 0 -14 -18 -20 -40 -6 -21 -16 -42
-22 -46 -7 -5 -9 1 -4 20 4 18 2 32 -9 43 -16 16 -19 92 -4 123 13 29 30 105
33 153 2 30 12 60 25 78 23 30 29 65 9 53 -8 -5 -9 3 -5 29 3 20 3 36 -1 36
-21 -3 -32 3 -32 17 0 14 3 14 15 4 13 -11 18 -10 30 6 12 17 11 20 -13 33
l-27 14 29 8 c40 11 61 37 93 113 14 36 31 66 36 66 30 0 80 116 78 184 -1 41
17 70 34 56 9 -8 14 -6 19 6 5 13 9 14 21 4 12 -10 15 -9 16 6 1 12 3 10 6 -6
3 -14 9 -29 14 -34z m1025 39 c-8 -8 -18 -15 -22 -15 -3 0 -1 7 6 15 7 8 17
15 22 15 5 0 3 -7 -6 -15z m-1681 -51 l30 -14 -35 5 c-19 3 -39 10 -44 15 -15
15 14 12 49 -6z m1085 0 c11 -4 8 -9 -12 -17 -19 -8 -25 -16 -19 -25 7 -11 15
-11 46 2 45 19 48 19 39 4 -4 -7 -3 -8 5 -4 6 4 24 1 41 -7 16 -8 31 -12 35
-9 11 11 55 13 55 2 0 -5 -6 -10 -12 -11 -49 -2 -93 -12 -99 -20 -6 -11 -40
-1 -51 15 -4 6 -12 5 -23 -4 -14 -11 -92 -17 -102 -6 -7 7 24 55 32 48 4 -4 5
2 1 13 -5 16 -1 20 22 22 15 1 34 0 42 -3z m-977 -21 c-7 -2 -21 -2 -30 0 -10
3 -4 5 12 5 17 0 24 -2 18 -5z m241 -2 c4 -5 -3 -7 -14 -4 -23 6 -26 13 -6 13
8 0 17 -4 20 -9z m-192 -13 c-9 -9 -15 -9 -24 0 -9 9 -7 12 12 12 19 0 21 -3
12 -12z m138 3 c0 -5 12 -12 28 -16 l27 -8 -29 -8 c-29 -8 -61 4 -70 28 -4 8
3 13 19 13 14 0 25 -4 25 -9z m515 -1 c7 -12 -12 -12 -40 0 -18 8 -17 9 7 9
15 1 30 -3 33 -9z m-1465 -30 c33 -11 73 -20 90 -20 30 0 41 -15 18 -23 -7 -2
1 -11 19 -20 35 -19 55 -41 26 -30 -10 4 -35 17 -57 29 -36 20 -41 21 -73 7
-19 -8 -40 -12 -46 -10 -7 2 3 7 21 11 90 21 -26 65 -176 67 -76 2 -89 3 -57
10 59 11 168 1 235 -21z m-396 -1 c21 -6 48 -20 60 -31 17 -17 18 -20 4 -15
-22 8 -23 -2 -4 -28 11 -16 29 -19 112 -22 132 -4 205 -13 179 -23 -11 -4 23
-5 76 -2 66 3 98 1 103 -7 5 -7 -7 -11 -36 -12 l-43 -2 40 -8 c34 -6 31 -7
-20 -4 -33 1 -89 10 -125 19 -36 10 -113 20 -172 23 l-107 5 -15 -37 c-9 -21
-16 -39 -16 -41 0 -2 88 -4 196 -4 189 0 290 -12 278 -32 -4 -6 9 -6 33 -2 42
9 50 9 143 5 58 -2 62 -4 35 -12 -18 -6 -106 -8 -217 -4 -191 6 -235 2 -308
-32 -24 -11 -65 -17 -125 -17 -78 -1 -94 2 -122 22 -34 24 -65 29 -57 9 2 -7
18 -21 33 -30 26 -15 63 -17 305 -17 185 0 276 -3 276 -10 0 -15 -568 -9 -578
6 -4 6 -17 16 -29 23 -13 6 -23 18 -23 25 0 8 -11 21 -24 29 -24 16 -76 99
-76 122 0 20 59 95 83 105 31 12 95 12 141 -1z m849 4 c-7 -2 -21 -2 -30 0
-10 3 -4 5 12 5 17 0 24 -2 18 -5z m64 1 c-3 -3 -12 -4 -19 -1 -8 3 -5 6 6 6
11 1 17 -2 13 -5z m149 -29 c14 -13 13 -15 -11 -15 -14 0 -24 4 -20 9 3 5 -5
12 -17 14 -19 4 -19 4 5 6 16 0 35 -6 43 -14z m74 -5 c0 -5 -2 -10 -4 -10 -3
0 -8 5 -11 10 -3 6 -1 10 4 10 6 0 11 -4 11 -10z m360 -6 c0 -8 -4 -12 -10 -9
-5 3 -10 10 -10 16 0 5 5 9 10 9 6 0 10 -7 10 -16z m796 -39 c10 -8 15 -14 9
-14 -5 0 -19 6 -29 14 -11 8 -15 15 -10 15 6 0 19 -7 30 -15z m-1549 -1 c-3
-3 -12 -4 -19 -1 -8 3 -5 6 6 6 11 1 17 -2 13 -5z m179 -3 c-4 -5 -1 -12 4
-14 6 -3 5 -4 -2 -3 -15 3 -23 26 -8 26 6 0 9 -4 6 -9z m1452 -23 c-2 -6 8
-15 22 -19 17 -5 6 -7 -36 -7 -64 0 -96 10 -75 23 7 4 19 4 27 1 9 -3 12 -1 9
4 -4 6 7 10 24 10 18 0 30 -5 29 -12z m-1291 -15 c-9 -9 -19 -14 -23 -11 -10
10 6 28 24 28 15 0 15 -1 -1 -17z m1140 11 c-3 -3 -12 -4 -19 -1 -8 3 -5 6 6
6 11 1 17 -2 13 -5z m-1549 -21 c-15 -2 -42 -2 -60 0 -18 2 -6 4 27 4 33 0 48
-2 33 -4z m1921 -15 c39 -14 18 -19 -38 -8 -74 14 -102 33 -36 24 28 -4 61
-11 74 -16z m-1118 -41 c-23 -50 -39 -67 -37 -38 1 18 48 93 54 86 2 -2 -6
-23 -17 -48z m-115 29 c3 -8 17 -17 32 -21 26 -6 26 -7 8 -21 -11 -7 -22 -11
-25 -8 -3 3 1 9 9 14 13 8 12 10 -3 10 -17 0 -47 22 -47 34 0 12 21 5 26 -8z
m-630 -7 c28 -7 41 -15 33 -19 -6 -4 -26 -4 -43 1 -17 5 -44 9 -61 9 -23 0
-27 3 -15 10 19 13 32 12 86 -1z m1769 -9 c3 -6 -1 -7 -9 -4 -18 7 -21 14 -7
14 6 0 13 -4 16 -10z m445 6 c0 -2 -7 -7 -16 -10 -8 -3 -12 -2 -9 4 6 10 25
14 25 6z m-773 -12 c-3 -3 -12 -4 -19 -1 -8 3 -5 6 6 6 11 1 17 -2 13 -5z
m152 -7 c14 -18 4 -27 -30 -27 -29 0 -44 13 -34 30 9 15 51 12 64 -3z m519
-29 c-2 -7 7 -14 20 -16 41 -6 22 -20 -20 -15 -53 7 -56 10 -32 28 24 18 35
19 32 3z m-1519 -9 c34 -12 44 -30 11 -22 -11 3 -34 0 -52 -6 -21 -8 -35 -8
-42 -1 -7 7 -5 10 6 10 9 0 18 7 22 15 6 18 13 18 55 4z m941 -10 c0 -5 -4 -9
-10 -9 -5 0 -10 7 -10 16 0 8 5 12 10 9 6 -3 10 -10 10 -16z m187 15 c19 -5
20 -8 8 -20 -12 -13 -19 -13 -50 0 -19 8 -35 17 -35 20 0 8 49 7 77 0z m-1277
-14 c0 -4 12 -11 27 -15 27 -6 27 -7 9 -21 -22 -16 -40 -19 -32 -5 9 15 -56
19 -82 5 -28 -14 -52 -9 -52 13 0 11 7 14 25 11 14 -3 32 0 40 6 18 13 65 17
65 6z m2040 -51 c11 -25 10 -36 -5 -70 -18 -40 -73 -79 -110 -79 -27 0 -91 38
-108 64 -22 33 -21 39 3 26 18 -10 19 -8 14 19 -12 59 27 86 105 71 35 -6 40
-4 45 13 5 20 6 20 25 3 10 -9 25 -31 31 -47z m-2209 34 c15 -3 33 -16 40 -30
12 -22 18 -24 54 -19 22 4 54 8 70 9 17 2 38 7 49 12 12 5 21 3 27 -6 6 -10 3
-15 -10 -17 -11 -2 -21 -12 -24 -23 -7 -25 -23 -24 -37 1 -8 15 -17 19 -38 14
-39 -8 -73 -26 -102 -51 -33 -30 -38 -21 -6 13 l25 28 -29 14 c-25 12 -35 12
-60 2 -16 -7 -30 -16 -30 -21 0 -5 -14 -9 -31 -9 -17 0 -28 4 -24 10 3 6 16
10 27 10 11 0 28 8 37 19 9 10 25 21 36 24 11 3 -5 3 -35 0 -30 -3 -59 -11
-63 -17 -6 -7 -7 -6 -5 4 3 8 14 19 26 25 12 5 22 14 22 19 0 4 12 5 28 2 15
-4 39 -10 53 -13z m1486 -9 c-3 -3 -12 -4 -19 -1 -8 3 -5 6 6 6 11 1 17 -2 13
-5z m-347 -34 c-18 -11 -22 -7 -14 14 5 13 10 14 18 6 8 -8 7 -13 -4 -20z
m635 14 c18 -13 17 -14 -13 -8 -24 5 -33 3 -38 -10 -3 -9 -14 -16 -23 -16 -14
1 -14 2 3 15 10 7 15 18 11 24 -10 17 37 13 60 -5z m78 -25 c-8 -8 -16 -8 -30
0 -16 9 -14 10 12 11 21 0 26 -3 18 -11z m-643 -14 c-6 -8 -9 -19 -5 -25 3 -5
-1 -10 -9 -10 -20 0 -20 -14 -1 -30 8 -7 15 -18 15 -25 0 -19 -38 -6 -55 18
-14 21 -15 20 -15 -15 0 -20 -4 -40 -10 -43 -6 -4 -10 15 -10 49 0 34 -5 56
-12 59 -7 3 -3 4 9 4 12 -1 25 -7 27 -14 9 -22 24 -14 18 10 -5 20 -4 21 13 7
17 -14 18 -13 12 2 -4 11 0 18 11 21 9 3 19 5 21 6 2 0 -2 -6 -9 -14z m-1431
1 c-9 -8 -218 -13 -213 -5 3 5 53 9 111 9 59 0 104 -2 102 -4z m1897 -25 c-4
-5 6 -14 21 -20 28 -11 28 -11 -4 -5 -17 3 -41 0 -52 -6 -14 -7 -21 -7 -21 0
0 5 5 10 10 10 6 0 10 7 10 15 0 8 9 15 21 15 11 0 18 -4 15 -9z m-1831 -21
c-3 -5 -14 -10 -23 -10 -15 0 -15 2 -2 10 20 13 33 13 25 0z m2034 -11 c-14
-8 -8 -13 36 -22 11 -3 -2 -5 -28 -6 -33 -1 -49 -6 -54 -17 -5 -13 -7 -13 -14
-2 -10 15 47 71 63 62 6 -4 5 -10 -3 -15z m-1689 7 c0 -2 -13 -9 -30 -15 -16
-5 -30 -6 -30 -1 0 7 10 11 53 19 4 0 7 -1 7 -3z m-415 -26 c4 -6 -2 -9 -14
-7 -29 4 -39 17 -13 17 11 0 24 -5 27 -10z m939 -6 c9 -24 2 -26 -12 -4 -7 11
-8 20 -3 20 5 0 12 -7 15 -16z m916 -4 c0 -5 -7 -10 -16 -10 -8 0 -12 5 -9 10
3 6 10 10 16 10 5 0 9 -4 9 -10z m129 -3 c-2 -2 -20 -14 -39 -26 l-35 -23 28
26 c15 14 33 26 39 26 6 0 9 -1 7 -3z m-159 -21 c0 -3 -4 -8 -10 -11 -5 -3
-10 -1 -10 4 0 6 5 11 10 11 6 0 10 -2 10 -4z m-1767 -13 c-7 -2 -19 -2 -25 0
-7 3 -2 5 12 5 14 0 19 -2 13 -5z m527 -3 c0 -5 -5 -10 -11 -10 -5 0 -7 5 -4
10 3 6 8 10 11 10 2 0 4 -4 4 -10z m367 -22 c-3 -7 -5 -2 -5 12 0 14 2 19 5
13 2 -7 2 -19 0 -25z m-221 -57 c-14 -28 -26 -57 -26 -65 0 -8 -5 -18 -11 -22
-8 -4 -9 1 -4 17 12 41 56 131 61 126 3 -3 -6 -28 -20 -56z m1274 39 c0 -5 -8
-10 -17 -10 -15 0 -16 2 -3 10 19 12 20 12 20 0z m-943 -22 c-3 -8 -6 -5 -6 6
-1 11 2 17 5 13 3 -3 4 -12 1 -19z m-140 -45 c-3 -10 -5 -4 -5 12 0 17 2 24 5
18 2 -7 2 -21 0 -30z m456 16 c29 -1 44 -3 35 -6 -21 -5 -22 -19 -3 -53 26
-45 16 -56 -11 -12 -26 43 -44 54 -44 27 0 -8 8 -20 19 -26 20 -13 17 -53 -4
-45 -14 5 -28 -31 -18 -47 3 -5 17 -6 30 -2 20 5 24 3 20 -9 -4 -10 -1 -13 8
-10 7 3 16 12 19 20 7 18 21 18 40 -2 15 -14 19 -13 44 7 25 21 26 22 4 16
-19 -4 -21 -3 -11 9 6 7 8 21 5 30 -5 13 -4 14 7 6 8 -7 17 -9 21 -5 10 10 76
12 82 2 3 -5 20 -9 37 -10 28 -1 29 -2 9 -7 -13 -4 -23 -11 -22 -17 3 -26 14
-61 24 -74 8 -12 8 -13 -2 -7 -7 4 -20 26 -29 47 -11 28 -20 38 -30 35 -8 -3
-21 -6 -29 -6 -12 0 -11 -8 7 -40 24 -42 21 -58 -6 -43 -9 5 -29 7 -46 5 -25
-4 -29 -8 -23 -26 7 -21 7 -21 -15 -1 l-22 19 6 -29 7 -30 -20 28 c-11 17 -22
25 -26 18 -4 -5 -14 -8 -24 -5 -14 5 -15 4 -2 -5 8 -6 12 -11 8 -11 -4 0 -3
-11 2 -25 11 -29 -3 -35 -19 -7 -10 16 -10 15 -11 -3 0 -12 -3 -16 -8 -9 -4 7
-18 11 -31 10 -21 -1 -26 5 -36 50 -6 29 -10 61 -8 73 4 25 -21 77 -39 84 -15
5 -58 -13 -58 -24 0 -4 4 -10 10 -14 5 -3 7 -12 4 -19 -3 -7 2 -16 10 -19 13
-5 14 -12 5 -34 -9 -24 -7 -30 11 -45 13 -10 16 -19 10 -23 -6 -4 -8 -15 -5
-25 4 -12 -1 -19 -15 -23 -11 -3 -20 -1 -20 5 0 5 -4 7 -8 4 -5 -3 -9 -33 -9
-68 0 -41 3 -56 8 -43 6 16 8 17 8 3 1 -9 6 -20 12 -23 7 -5 8 5 4 32 -5 28
-4 34 4 23 6 -8 11 -25 11 -37 0 -13 5 -23 11 -23 6 0 8 8 5 18 -3 9 -1 24 4
32 8 12 10 11 10 -6 0 -12 7 -25 16 -28 28 -11 35 -7 24 13 -6 13 -7 28 0 45
6 16 6 27 -1 31 -11 7 -3 25 12 25 5 0 9 -10 10 -22 1 -22 1 -22 8 2 5 17 9
21 15 12 4 -7 11 -10 16 -7 5 3 11 1 15 -5 3 -5 13 -10 21 -10 8 0 12 5 9 10
-3 6 -2 10 3 10 5 0 14 -12 20 -26 10 -20 10 -24 0 -17 -28 17 -37 10 -43 -30
-3 -23 -5 -63 -3 -90 2 -37 6 -46 18 -41 20 8 31 8 54 -2 14 -5 17 -4 12 4
-11 17 10 15 28 -4 26 -25 19 -32 -34 -36 -35 -2 -50 1 -50 10 0 6 -4 12 -8
12 -4 0 -8 -9 -8 -20 0 -20 21 -29 104 -46 18 -4 32 -10 32 -14 0 -4 -19 -3
-42 2 -74 17 -88 19 -88 11 0 -15 16 -28 54 -46 21 -10 36 -20 33 -23 -3 -3
-27 4 -52 15 -58 25 -55 25 -55 1 0 -11 3 -19 8 -18 4 1 21 -5 37 -13 17 -7
64 -13 110 -14 74 0 80 1 77 20 -2 11 -13 29 -26 40 -12 12 -20 27 -18 34 2 7
-7 25 -20 39 -33 36 -42 61 -23 69 10 3 13 12 10 23 -3 10 -1 21 5 25 5 3 10
25 10 48 0 51 17 64 91 72 40 4 57 1 71 -12 28 -25 23 -75 -12 -113 -16 -18
-30 -34 -30 -36 0 -2 33 -4 73 -4 65 -1 70 -2 48 -14 -21 -11 -11 -14 87 -20
108 -6 152 0 167 25 4 6 3 14 -4 18 -6 4 17 13 50 20 60 12 95 10 43 -3 -15
-4 -43 -18 -63 -32 l-36 -25 51 3 c29 2 50 6 48 9 -2 4 9 12 25 19 16 6 38 21
48 32 17 19 17 19 -11 12 -21 -5 -27 -4 -22 5 4 6 15 11 24 11 9 1 31 7 47 16
l30 14 -30 -5 c-16 -3 -39 -8 -50 -12 -16 -4 -18 -3 -8 7 7 7 33 13 58 14 25
1 45 5 45 9 0 5 4 6 9 3 5 -3 25 10 44 29 29 29 42 35 79 35 53 0 121 -30 143
-63 9 -14 19 -41 22 -61 5 -32 1 -40 -43 -86 -27 -27 -56 -50 -64 -51 -10 0
-11 -2 -2 -6 24 -9 11 -23 -28 -29 -22 -4 -43 -11 -46 -15 -3 -5 -13 -9 -22
-9 -9 0 -39 -12 -67 -25 -27 -14 -59 -25 -70 -25 -12 0 -27 -6 -34 -12 -9 -10
-70 -13 -233 -13 -168 0 -222 -3 -225 -12 -3 -7 -18 -13 -34 -13 -16 0 -29 -2
-29 -6 0 -8 59 -114 95 -169 18 -27 43 -70 57 -95 14 -25 56 -95 93 -155 38
-61 82 -135 98 -165 17 -30 43 -73 59 -96 51 -72 68 -69 -405 -69 -232 0 -491
-2 -576 -5 -99 -3 -156 -1 -158 5 -2 7 63 11 179 13 202 4 210 6 333 88 59 40
80 42 120 9 35 -29 22 -34 -15 -5 -33 26 -39 25 -86 -9 -21 -16 -49 -32 -61
-35 -13 -4 -23 -11 -23 -16 0 -14 42 -20 146 -20 86 0 104 3 124 20 19 17 21
23 12 47 -6 16 -16 52 -23 82 l-13 53 62 55 c35 31 62 63 62 74 0 20 8 23 34
13 31 -12 15 -34 -59 -84 -56 -38 -75 -56 -75 -73 1 -29 33 -158 43 -174 9
-15 342 -19 364 -5 9 5 -2 31 -37 87 -27 44 -57 94 -66 110 -9 17 -31 53 -49
80 -18 28 -85 139 -150 248 -65 108 -124 197 -131 197 -7 0 -11 6 -8 14 8 20
-7 25 -46 16 l-35 -8 33 -1 c17 -1 32 -5 32 -11 0 -13 -35 -13 -85 1 -22 7
-57 12 -78 13 -35 1 -38 -1 -33 -21 3 -13 8 -35 11 -50 4 -23 4 -24 -4 -8 -5
11 -15 35 -21 53 -7 18 -14 31 -15 30 -1 -2 1 -29 4 -61 8 -62 -3 -88 -14 -37
-8 36 -25 30 -25 -8 0 -21 -5 -28 -20 -29 -16 -1 -20 4 -20 26 0 15 -4 41 -10
57 -5 16 -14 48 -20 71 -9 35 -15 43 -41 48 -17 4 -33 4 -36 1 -3 -3 5 -25 17
-50 12 -25 19 -52 17 -58 -4 -8 -6 -7 -6 4 -1 9 -6 20 -12 24 -8 5 -10 -4 -7
-30 2 -20 1 -33 -3 -28 -4 4 -10 30 -13 57 -3 28 -7 59 -9 70 -3 11 -5 23 -6
28 0 4 -9 7 -18 7 -10 0 -29 9 -43 20 -14 11 -30 20 -37 20 -6 0 -18 9 -26 20
-8 11 -17 17 -20 13 -4 -3 -7 -1 -7 6 0 7 -8 11 -17 9 -10 -1 -23 1 -29 5 -23
14 -36 -50 -33 -150 6 -183 -3 -781 -11 -718 -4 32 -8 196 -9 363 0 294 -4
360 -22 392 -6 12 -11 8 -21 -17 -7 -18 -16 -33 -20 -33 -4 0 -8 -7 -8 -15 0
-28 -18 -15 -31 22 -8 25 -10 76 -6 157 6 135 8 146 38 164 18 11 24 11 40 -4
18 -16 19 -16 19 9 0 38 -10 56 -27 50 -12 -5 -14 -1 -8 18 4 16 3 20 -3 10
-7 -10 -11 -10 -17 -1 -4 6 -3 16 3 22 6 6 8 17 5 26 -4 10 -2 13 5 8 7 -4 12
-1 12 8 0 10 6 13 16 9 14 -5 15 0 9 35 -7 44 7 56 33 30 15 -15 16 -3 1 24
-14 27 -2 36 16 12 13 -17 14 -17 15 -1 0 23 17 22 30 -2 14 -27 13 -36 -5
-21 -15 12 -35 6 -35 -12 0 -11 29 -37 43 -38 4 0 7 8 7 17 0 13 3 14 12 5 20
-20 27 -14 22 21 -5 45 4 67 28 67 14 0 18 5 14 15 -4 11 0 15 12 13 12 -2 16
3 14 16 -3 15 1 14 21 -8 18 -19 32 -25 48 -22 39 7 59 18 53 27 -3 5 2 9 11
9 12 0 15 6 10 22 -6 17 -4 20 10 15 9 -4 40 -8 68 -8z m541 3 c6 -10 -92 -37
-101 -28 -4 3 3 6 15 6 12 0 22 4 22 9 0 5 10 12 23 14 12 2 25 5 29 6 4 0 9
-3 12 -7z m-1744 -10 c0 -11 -63 -30 -120 -36 -42 -5 -44 -4 -25 10 11 8 31
12 45 10 19 -4 63 6 98 23 1 0 2 -3 2 -7z m1300 -2 c0 -5 -4 -10 -10 -10 -5 0
-10 5 -10 10 0 6 5 10 10 10 6 0 10 -4 10 -10z m85 -10 c-10 -11 -23 -20 -29
-20 -6 0 -3 5 7 11 9 6 15 14 12 20 -4 5 2 9 11 9 16 0 16 -1 -1 -20z m444 10
c-22 -13 -69 -20 -69 -11 0 15 14 21 49 21 27 -1 32 -3 20 -10z m-222 -6 c-3
-3 -12 -4 -19 -1 -8 3 -5 6 6 6 11 1 17 -2 13 -5z m-2122 -40 c5 -16 14 -32
20 -36 6 -5 3 -8 -7 -8 -11 0 -18 -8 -18 -18 0 -10 -7 -27 -15 -39 -8 -12 -12
-23 -8 -25 8 -4 31 -3 36 2 1 2 20 3 43 4 48 3 104 24 101 38 -1 6 8 11 21 13
33 3 27 -7 -20 -32 -77 -40 -123 -52 -181 -46 -35 4 -57 2 -61 -6 -11 -18 -69
-12 -94 9 -25 21 -22 40 8 40 10 0 21 7 24 15 3 9 20 23 38 31 32 14 32 15 5
11 -57 -9 -39 20 37 59 51 26 58 25 71 -12z m125 32 c0 -2 -7 -7 -16 -10 -8
-3 -12 -2 -9 4 6 10 25 14 25 6z m2130 -16 c11 -7 7 -10 -17 -10 -18 0 -33 5
-33 10 0 13 30 13 50 0z m-2195 -10 c-3 -5 -10 -10 -16 -10 -5 0 -9 5 -9 10 0
6 7 10 16 10 8 0 12 -4 9 -10z m259 -25 c-21 -16 -54 -20 -54 -6 0 10 22 18
54 20 20 1 20 1 0 -14z m60 -12 c-4 -16 -18 -39 -31 -53 l-26 -25 28 53 c32
59 38 64 29 25z m36 13 c0 -2 -8 -10 -17 -17 -16 -13 -17 -12 -4 4 13 16 21
21 21 13z m115 -34 c-3 -3 -11 0 -18 7 -9 10 -8 11 6 5 10 -3 15 -9 12 -12z
m-270 -2 c-3 -5 -16 -10 -28 -9 -21 0 -21 1 -2 9 28 12 37 12 30 0z m877 -15
c13 -17 9 -45 -7 -45 -8 0 -15 9 -15 20 0 11 -4 20 -10 20 -5 0 -10 -10 -10
-22 l-1 -23 -19 24 c-11 12 -18 26 -16 30 7 11 70 7 78 -4z m984 -30 c-11 -8
-24 -15 -30 -15 -5 0 -1 7 10 15 10 8 24 14 29 14 6 0 1 -6 -9 -14z m-1336
-12 c0 -15 -19 -38 -30 -38 -6 0 -20 -11 -31 -25 l-20 -25 12 28 c7 15 17 27
22 27 6 0 7 3 4 7 -9 9 12 33 29 33 8 0 14 -3 14 -7z m-134 -50 c-9 -10 -24
-27 -32 -38 -13 -16 -15 -17 -10 -2 6 17 -8 24 -18 8 -6 -9 -101 -61 -113 -61
-3 0 3 10 15 23 12 13 19 27 15 30 -6 6 14 11 44 10 7 -1 10 3 7 8 -3 5 5 9
18 9 14 0 33 7 44 15 29 22 52 20 30 -2z m209 -69 c0 -80 -7 -92 -24 -43 -6
17 -15 28 -21 24 -6 -3 -10 4 -10 17 0 27 38 93 48 83 4 -4 7 -40 7 -81z
m-104 -32 c-4 -52 -16 -60 -15 -9 2 58 3 61 11 53 4 -4 6 -24 4 -44z m-56 -11
c-15 -5 -65 -53 -65 -62 0 -4 15 -9 33 -11 l32 -4 -28 -14 c-23 -11 -30 -11
-36 -1 -6 9 -11 10 -15 2 -4 -6 -5 -15 -2 -19 3 -5 -10 -24 -29 -43 -19 -19
-35 -42 -35 -51 0 -10 -4 -18 -9 -18 -9 0 -32 -35 -84 -130 -17 -30 -49 -82
-72 -115 -23 -33 -95 -145 -160 -250 -136 -219 -283 -445 -291 -445 -3 0 -3 3
-1 8 21 36 147 242 182 297 44 68 149 238 170 273 6 9 41 68 78 130 37 63 67
116 67 118 0 3 8 17 18 32 55 81 73 111 77 133 3 13 9 25 15 27 6 2 17 17 25
33 15 28 15 29 -7 29 -19 0 -20 -2 -8 -10 8 -5 11 -10 5 -10 -5 0 -25 -13 -43
-28 -23 -20 -31 -33 -26 -46 11 -30 -25 -105 -59 -123 -38 -20 -91 -18 -125 5
l-24 16 26 21 c17 13 26 31 26 48 0 41 26 84 55 91 14 4 25 13 25 21 0 10 10
15 30 15 16 0 29 -3 29 -7 -4 -25 3 -44 14 -40 6 2 11 12 11 21 -1 9 4 16 11
16 7 0 15 6 18 13 3 9 16 12 34 10 24 -4 34 3 71 51 40 53 44 54 60 38 10 -10
13 -19 7 -21z m-355 15 c0 -3 -4 -8 -10 -11 -5 -3 -10 -1 -10 4 0 6 5 11 10
11 6 0 10 -2 10 -4z m375 -66 c-3 -5 -12 -10 -18 -10 -7 0 -6 4 3 10 19 12 23
12 15 0z m1502 -45 c26 -15 26 -15 3 -9 -14 4 -37 13 -52 20 -15 8 -34 14 -43
14 -8 0 -15 4 -15 10 0 10 64 -10 107 -35z m-1360 -7 c-3 -8 -6 -5 -6 6 -1 11
2 17 5 13 3 -3 4 -12 1 -19z m-817 -2 c0 -2 -8 -10 -17 -17 -16 -13 -17 -12
-4 4 13 16 21 21 21 13z m714 -38 c-1 -24 -3 -63 -4 -88 l-3 -45 -6 47 c-8 52
-3 128 8 128 4 0 6 -19 5 -42z m87 -36 c-6 -2 -11 -10 -11 -18 0 -9 -5 -12
-10 -9 -12 7 -4 42 14 64 9 12 12 10 14 -10 2 -13 -1 -25 -7 -27z m-224 12
c-3 -3 -12 -4 -19 -1 -8 3 -5 6 6 6 11 1 17 -2 13 -5z m1693 -9 c24 -14 24
-14 -20 -15 -25 0 -56 3 -70 7 -24 7 -23 8 10 14 52 10 53 9 80 -6z m-2185
-25 c-17 -19 -17 -19 14 -10 44 12 39 4 -11 -19 -29 -13 -52 -34 -71 -65 -16
-25 -30 -46 -32 -46 -2 0 2 18 10 40 13 38 13 40 -5 40 -11 0 -24 -9 -30 -20
-6 -11 -21 -20 -33 -20 -21 0 -21 0 4 26 14 14 43 31 65 39 21 8 35 14 29 15
-8 0 59 36 74 39 2 1 -4 -8 -14 -19z m485 -20 c20 -6 21 -8 5 -8 -11 0 -29 3
-40 8 -25 11 1 11 35 0z m-53 -46 c-3 -3 -12 -4 -19 -1 -8 3 -5 6 6 6 11 1 17
-2 13 -5z m195 -116 c1 -62 -5 -98 -22 -141 -12 -32 -24 -56 -27 -53 -3 3 2
24 12 48 15 38 22 98 24 207 1 19 4 32 7 28 4 -3 6 -43 6 -89z m-572 40 c-13
-5 -47 -32 -77 -60 -43 -42 -53 -59 -53 -85 0 -18 2 -33 5 -33 9 0 108 70 135
95 14 13 43 38 65 56 l40 33 -45 -48 c-45 -48 -139 -124 -180 -146 -12 -7 -43
-27 -67 -46 -27 -21 -56 -34 -73 -34 -34 0 -100 29 -100 44 0 6 -9 22 -20 36
-25 32 -25 53 3 104 21 39 47 73 47 62 0 -3 15 1 33 8 47 20 137 1 137 -28 0
-12 4 -28 10 -36 7 -12 12 -12 29 4 28 25 26 34 -6 39 -24 3 -23 4 7 6 20 0
48 11 64 25 18 14 38 21 50 18 18 -5 18 -6 -4 -14z m389 -4 c10 -9 -65 -3 -78
5 -10 6 1 8 30 4 24 -3 46 -7 48 -9z m571 -411 c0 -193 -4 -303 -10 -303 -6 0
-10 115 -10 318 0 206 4 312 10 302 5 -9 10 -142 10 -317z m-443 230 c-3 -10
-5 -4 -5 12 0 17 2 24 5 18 2 -7 2 -21 0 -30z m176 2 c-3 -9 -8 -14 -10 -11
-3 3 -2 9 2 15 9 16 15 13 8 -4z m-44 -64 c-12 -17 -24 -29 -27 -27 -2 3 6 18
19 35 12 17 24 29 27 27 2 -3 -6 -18 -19 -35z m905 21 c5 -17 26 -70 41 -106
6 -15 5 -17 -5 -11 -7 4 -11 4 -9 -1 2 -5 11 -26 19 -46 15 -41 30 -50 30 -19
0 11 5 23 10 26 6 3 10 15 10 26 0 11 5 25 10 32 6 7 20 25 32 41 20 26 22 27
34 11 7 -10 25 -55 40 -101 23 -74 29 -84 50 -84 13 0 24 -4 24 -10 0 -12 -40
-13 -57 -2 -7 4 -24 45 -38 90 -14 45 -30 80 -35 77 -15 -9 -32 -84 -24 -108
4 -12 6 -43 5 -68 -2 -39 2 -49 22 -65 31 -24 45 -64 23 -64 -9 0 -16 -5 -16
-10 0 -6 -13 -4 -30 5 -21 11 -39 34 -59 79 -16 35 -37 68 -47 74 -15 8 -16
13 -6 25 11 12 8 24 -12 64 -13 26 -29 66 -34 88 -5 22 -12 47 -16 55 -4 11
-1 16 13 17 10 1 22 -6 25 -15z m51 -19 c4 -14 2 -23 -4 -23 -6 0 -11 6 -11
14 0 8 -3 23 -6 33 -5 12 -4 15 3 8 6 -5 14 -20 18 -32z m-45 -213 c0 -5 -4
-10 -10 -10 -5 0 -10 5 -10 10 0 6 5 10 10 10 6 0 10 -4 10 -10z m-1300 -30
c-8 -5 -31 -9 -50 -9 l-35 2 35 7 c19 4 42 8 50 9 13 1 13 0 0 -9z m-134 -18
c-2 -4 9 -17 25 -27 16 -11 29 -23 29 -27 0 -5 5 -8 11 -8 6 0 26 -12 45 -26
33 -26 42 -52 28 -88 -11 -30 -25 -16 -18 18 6 34 4 36 -70 91 -75 55 -91 75
-60 75 8 0 13 -4 10 -8z m1384 -26 c7 -9 9 -16 6 -16 -13 0 -56 32 -56 42 0
11 32 -6 50 -26z m45 -34 c-3 -3 -11 0 -18 7 -9 10 -8 11 6 5 10 -3 15 -9 12
-12z m45 -55 c-1 -18 -7 -45 -15 -62 -15 -30 -15 -30 -8 15 4 25 6 55 6 67 -1
13 3 20 8 17 5 -3 9 -20 9 -37z m-1170 -122 c19 -14 29 -25 24 -25 -6 0 -19 7
-30 15 -30 23 -54 18 -118 -25 -56 -37 -58 -39 -33 -45 14 -4 75 -5 135 -3 86
2 112 7 126 20 16 16 18 16 37 -3 19 -19 31 -20 205 -17 160 3 184 1 182 -12
-3 -13 -62 -15 -448 -18 -245 -2 -518 -5 -607 -5 -103 -1 -163 2 -163 8 0 6
76 10 208 11 205 1 208 1 262 28 57 29 72 37 130 74 44 28 49 27 90 -3z m530
-25 c0 -22 -4 -40 -8 -40 -4 0 -8 18 -9 40 -1 22 2 40 8 40 5 0 9 -18 9 -40z"/>
<path d="M3043 3540 c-49 -29 -67 -63 -57 -107 4 -21 8 -42 8 -48 1 -15 48
-35 83 -35 46 0 83 35 90 87 8 64 -3 92 -42 109 -43 18 -44 18 -82 -6z"/>
<path d="M3070 3080 c0 -5 5 -10 11 -10 5 0 7 5 4 10 -3 6 -8 10 -11 10 -2 0
-4 -4 -4 -10z"/>
<path d="M2988 2787 c-5 -10 -8 -32 -8 -48 0 -17 -4 -28 -9 -24 -16 9 -25 -17
-27 -80 -2 -47 0 -55 7 -36 6 14 15 32 22 40 9 12 9 13 0 7 -18 -10 -16 -3 8
48 12 25 19 59 17 78 -2 26 -5 29 -10 15z"/>
<path d="M1924 3410 c-49 -20 -65 -75 -43 -139 27 -76 155 -66 175 14 10 40
-5 94 -29 110 -30 20 -77 27 -103 15z"/>
<path d="M2172 2840 c0 -19 2 -27 5 -17 2 9 2 25 0 35 -3 9 -5 1 -5 -18z"/>
<path d="M1937 2589 c-11 -12 -16 -28 -12 -37 6 -15 8 -15 21 2 12 17 20 56
11 56 -1 0 -11 -9 -20 -21z"/>
<path d="M1847 2530 c3 -11 9 -20 14 -20 5 0 9 9 9 20 0 11 -6 20 -14 20 -9 0
-12 -7 -9 -20z"/>
<path d="M3420 2555 c-17 -20 9 -21 36 0 19 14 19 14 -2 15 -12 0 -27 -7 -34
-15z"/>
<path d="M2835 2370 c-3 -5 -2 -10 4 -10 5 0 13 5 16 10 3 6 2 10 -4 10 -5 0
-13 -4 -16 -10z"/>
<path d="M3629 2283 c-31 -19 -59 -63 -59 -91 0 -11 12 -35 27 -52 25 -30 30
-32 77 -27 54 5 96 39 96 78 0 33 -28 78 -60 94 -36 19 -48 19 -81 -2z"/>
<path d="M3577 2079 c-5 -20 1 -22 43 -10 l25 7 -32 11 c-27 10 -32 9 -36 -8z"/>
<path d="M1860 2250 c0 -5 5 -10 11 -10 5 0 7 5 4 10 -3 6 -8 10 -11 10 -2 0
-4 -4 -4 -10z"/>
<path d="M2200 2200 c0 -27 17 -34 29 -11 9 15 7 20 -9 24 -15 4 -20 0 -20
-13z"/>
<path d="M2166 2163 c9 -38 11 -39 16 -3 3 21 0 30 -9 30 -10 0 -11 -8 -7 -27z"/>
<path d="M2575 2051 c-4 -3 -10 -6 -14 -6 -14 0 -41 -33 -41 -50 0 -12 5 -15
16 -11 9 3 27 9 40 12 13 3 24 12 24 20 0 8 7 14 16 14 8 0 13 4 10 9 -8 12
-43 20 -51 12z"/>
<path d="M2065 1943 c-9 -21 -22 -44 -29 -53 -21 -24 -30 -60 -14 -60 17 1 78
99 78 127 0 35 -18 27 -35 -14z"/>
<path d="M2315 1940 c-4 -19 -3 -36 4 -43 16 -16 27 1 13 23 -9 14 -9 20 1 23
9 3 9 8 1 17 -9 9 -14 5 -19 -20z"/>
<path d="M2401 1954 c13 -16 12 -16 -9 -5 -12 6 -22 8 -21 4 1 -4 -1 -16 -6
-26 -4 -11 -3 -23 4 -30 8 -8 11 -8 11 1 0 21 36 13 48 -10 11 -23 11 -23 11
-2 1 31 30 39 53 14 10 -11 16 -24 13 -29 -8 -14 15 -25 27 -13 12 12 -18 62
-38 62 -8 0 -14 7 -14 15 0 9 6 12 16 8 12 -4 15 -2 12 8 -6 17 -48 25 -48 9
0 -6 -4 -8 -10 -5 -5 3 -10 0 -10 -7 0 -9 -3 -9 -8 -2 -4 6 -16 14 -26 17 -17
7 -17 6 -5 -9z"/>
<path d="M2163 1943 c-7 -3 -13 -17 -13 -31 l0 -26 16 22 c17 25 16 41 -3 35z"/>
<path d="M2108 1923 c-23 -28 -30 -43 -19 -43 12 0 46 48 39 55 -3 3 -12 -3
-20 -12z"/>
<path d="M2340 1871 c0 -5 5 -13 10 -16 6 -3 10 -2 10 4 0 5 -4 13 -10 16 -5
3 -10 2 -10 -4z"/>
<path d="M2122 1850 c0 -14 2 -19 5 -12 2 6 2 18 0 25 -3 6 -5 1 -5 -13z"/>
<path d="M2540 1821 c0 -18 19 -51 30 -51 16 0 11 19 -10 42 -11 12 -20 16
-20 9z"/>
<path d="M1963 1638 c-6 -18 -14 -44 -18 -58 -7 -24 -6 -24 8 -5 13 18 33 95
24 95 -1 0 -8 -15 -14 -32z"/>
<path d="M1916 1498 c-8 -32 -7 -83 1 -74 8 7 16 96 9 96 -2 0 -6 -10 -10 -22z"/>
<path d="M1970 1474 c0 -8 5 -12 10 -9 6 3 10 10 10 16 0 5 -4 9 -10 9 -5 0
-10 -7 -10 -16z"/>
<path d="M1900 1355 c0 -8 4 -15 10 -15 5 0 7 7 4 15 -4 8 -8 15 -10 15 -2 0
-4 -7 -4 -15z"/>
<path d="M1871 1314 c0 -11 3 -14 6 -6 3 7 2 16 -1 19 -3 4 -6 -2 -5 -13z"/>
<path d="M1902 1310 c0 -14 2 -19 5 -12 2 6 2 18 0 25 -3 6 -5 1 -5 -13z"/>
<path d="M1947 1173 c-4 -3 -7 -11 -7 -17 0 -6 5 -5 12 2 6 6 9 14 7 17 -3 3
-9 2 -12 -2z"/>
<path d="M1861 1062 c-7 -24 -10 -49 -8 -55 2 -7 10 7 16 31 7 24 10 49 8 55
-2 7 -10 -7 -16 -31z"/>
<path d="M1900 1084 c0 -8 5 -12 10 -9 6 3 10 10 10 16 0 5 -4 9 -10 9 -5 0
-10 -7 -10 -16z"/>
<path d="M1901 994 c0 -11 3 -14 6 -6 3 7 2 16 -1 19 -3 4 -6 -2 -5 -13z"/>
<path d="M1800 858 c0 -3 -7 -22 -16 -43 -8 -20 -10 -34 -5 -30 18 10 12 -6
-24 -75 -19 -36 -30 -66 -25 -68 6 -2 6 -11 -1 -24 -6 -11 -8 -22 -6 -25 8 -7
28 34 32 66 2 15 13 49 24 74 12 25 18 52 15 61 -3 8 0 24 6 36 6 12 9 24 6
28 -3 3 -6 3 -6 0z"/>
<path d="M422 2113 c-19 -9 -41 -32 -52 -53 -18 -36 -18 -37 1 -69 10 -17 35
-39 54 -48 32 -15 40 -16 77 -3 23 8 44 22 48 30 4 8 12 25 19 38 18 36 -18
98 -66 111 -47 13 -41 14 -81 -6z"/>
<path d="M555 1923 c-68 -20 -73 -29 -29 -43 50 -17 160 -7 249 21 39 12 99
25 135 29 46 5 10 7 -120 8 -138 0 -198 -3 -235 -15z"/>
<path d="M2475 1433 c4 -21 9 -47 11 -58 3 -11 -7 -2 -21 20 l-26 40 5 -58 c3
-32 8 -62 11 -67 10 -16 37 2 32 21 -3 12 0 19 9 19 24 0 27 27 9 75 -21 55
-38 59 -30 8z"/>
<path d="M2833 1431 c-25 -21 -21 -31 13 -31 25 0 45 21 26 28 -7 2 -10 8 -6
13 9 15 -10 9 -33 -10z"/>
<path d="M2305 1427 c-4 -10 -5 -21 -1 -24 10 -10 18 4 13 24 -4 17 -4 17 -12
0z"/>
<path d="M2532 1380 c0 -14 2 -19 5 -12 2 6 2 18 0 25 -3 6 -5 1 -5 -13z"/>
<path d="M2345 1370 c-4 -6 -1 -17 5 -25 6 -8 9 -18 7 -22 -3 -5 -2 -24 3 -43
7 -32 9 -33 15 -12 9 27 35 29 35 2 0 -11 -7 -20 -15 -20 -24 0 -18 -39 8 -51
15 -7 27 -25 34 -52 7 -23 10 -43 9 -44 -2 -2 -13 6 -26 17 -13 11 -26 17 -29
14 -3 -4 0 -9 7 -11 6 -3 12 -13 12 -24 0 -10 5 -19 10 -19 6 0 10 -6 10 -14
0 -16 26 -46 41 -46 14 0 11 26 -6 40 -8 7 -15 17 -15 22 0 6 7 5 15 -2 9 -8
15 -9 15 -2 0 6 -5 14 -10 17 -6 4 -8 14 -5 24 7 24 -19 107 -33 103 -9 -1 -9
2 -1 17 10 14 9 23 -4 41 -8 12 -13 28 -11 34 13 35 -52 86 -71 56z"/>
<path d="M2680 1350 c0 -18 4 -29 10 -25 6 3 10 15 10 25 0 10 -4 22 -10 25
-6 4 -10 -7 -10 -25z"/>
<path d="M2491 1289 c0 -9 -8 -19 -16 -23 -19 -7 -19 -35 0 -60 8 -10 12 -23
9 -27 -8 -13 10 -11 24 3 14 14 16 50 3 64 -5 5 -11 20 -14 34 -2 14 -5 18 -6
9z"/>
<path d="M2310 1248 c0 -18 -3 -43 -6 -54 -3 -13 0 -23 9 -27 10 -4 13 2 10
21 -4 23 -3 25 7 9 21 -32 29 -7 12 38 -19 53 -32 58 -32 13z"/>
<path d="M2671 1203 c-1 -29 1 -53 4 -53 6 0 45 38 45 45 0 2 -7 2 -14 -1 -10
-4 -18 5 -25 28 -9 32 -9 31 -10 -19z"/>
<path d="M3747 1234 c-38 -21 -54 -62 -30 -80 11 -8 13 -13 6 -14 -17 0 -16
-35 1 -49 30 -25 72 -29 112 -12 52 24 67 44 60 79 -7 31 -50 82 -69 82 -7 0
-21 2 -32 5 -11 3 -33 -2 -48 -11z"/>
<path d="M2370 1190 c0 -5 5 -10 11 -10 5 0 7 5 4 10 -3 6 -8 10 -11 10 -2 0
-4 -4 -4 -10z"/>
<path d="M3598 1156 c-26 -17 -47 -35 -47 -40 -1 -4 19 -6 44 -4 27 2 44 -1
42 -7 -2 -5 -31 -11 -65 -13 -54 -3 -64 -6 -79 -28 -9 -14 -30 -32 -47 -41
l-31 -16 23 25 c12 13 22 28 22 32 0 15 -105 -7 -140 -29 -19 -13 -46 -26 -60
-30 -17 -4 -11 2 18 20 23 14 42 28 42 30 0 2 -46 3 -102 3 -57 0 -136 4 -175
9 -40 5 -73 6 -73 1 0 -4 9 -8 20 -8 11 0 28 -4 38 -9 9 -5 38 -18 64 -28 29
-11 42 -21 35 -25 -23 -15 -75 -8 -132 17 -32 14 -60 24 -63 21 -12 -12 27
-51 64 -63 36 -12 36 -12 7 -8 -18 2 -33 1 -33 -4 0 -13 28 -33 38 -27 5 3 34
9 65 14 42 7 57 6 61 -4 3 -8 -11 -14 -42 -19 -26 -3 -57 -9 -70 -12 -22 -5
-22 -6 -6 -24 18 -20 67 -20 87 0 7 7 66 11 171 11 89 0 168 4 175 9 24 15
-32 25 -103 18 -36 -3 -68 -2 -76 4 -11 8 -8 9 12 5 15 -3 30 -2 33 4 3 5 15
10 26 10 11 0 17 5 14 10 -4 6 18 10 59 10 35 0 76 4 91 10 19 7 24 7 19 -2
-7 -11 14 -9 86 7 14 3 9 -1 -11 -9 -19 -7 -60 -17 -90 -21 l-54 -8 35 -9 c50
-11 102 -1 208 40 81 32 91 38 76 49 -21 15 -44 17 -44 4 0 -5 -8 -12 -17 -15
-16 -6 -16 -6 0 12 15 17 15 19 -1 33 -9 9 -22 25 -29 35 -11 17 -12 17 -12 2
-1 -10 -5 -18 -10 -18 -7 0 -8 24 -1 55 5 20 0 55 -7 54 -5 -1 -29 -15 -55
-33z m45 -101 c-3 -9 -19 -23 -35 -31 -17 -9 -27 -11 -24 -6 4 6 2 13 -4 17
-17 11 -2 23 24 18 13 -3 27 0 30 6 10 16 16 13 9 -4z m-425 -64 c-7 -2 3 -10
22 -17 34 -13 33 -13 -31 -11 -37 1 -65 5 -62 10 2 4 -2 7 -9 7 -10 0 -10 2 0
9 8 5 32 8 53 7 22 0 34 -3 27 -5z"/>
<path d="M2347 1146 c-7 -19 4 -27 21 -17 10 6 10 10 -1 20 -12 9 -16 8 -20
-3z"/>
<path d="M2595 1130 c11 -51 20 -63 49 -65 19 0 26 4 26 17 0 13 -8 18 -25 18
-18 0 -25 5 -25 19 0 10 -7 25 -16 32 -15 12 -16 10 -9 -21z"/>
<path d="M2490 1143 c1 -4 7 -19 16 -33 l14 -25 -2 29 c-2 16 -9 31 -15 34 -7
2 -13 0 -13 -5z"/>
<path d="M2626 1135 c4 -8 8 -15 10 -15 2 0 4 7 4 15 0 8 -4 15 -10 15 -5 0
-7 -7 -4 -15z"/>
<path d="M2535 1120 c-7 -23 1 -40 20 -40 7 0 16 -6 18 -12 3 -7 6 -2 6 12 0
23 -19 60 -32 60 -3 0 -8 -9 -12 -20z"/>
<path d="M2680 1074 c0 -8 5 -12 10 -9 6 4 8 11 5 16 -9 14 -15 11 -15 -7z"/>
<path d="M2900 1082 c0 -18 17 -23 42 -13 16 7 18 10 6 10 -9 1 -23 4 -32 7
-9 3 -16 1 -16 -4z"/>
<path d="M2515 1070 c3 -5 8 -10 11 -10 2 0 4 5 4 10 0 6 -5 10 -11 10 -5 0
-7 -4 -4 -10z"/>
<path d="M2547 1054 c5 -14 1 -16 -21 -12 -23 5 -27 2 -24 -14 2 -14 20 -25
58 -39 30 -10 56 -19 58 -19 2 0 1 15 -3 33 -4 21 -3 27 3 18 7 -9 12 -10 16
-2 11 18 -3 31 -34 31 -16 0 -32 5 -35 10 -10 17 -25 11 -18 -6z"/>
<path d="M2994 1035 c11 -8 27 -15 35 -15 10 1 7 6 -9 15 -33 19 -50 18 -26 0z"/>
<path d="M2661 1013 c-1 -13 -5 -23 -11 -23 -5 0 -6 -8 -3 -17 6 -15 7 -15 14
3 7 17 8 16 9 -6 1 -14 4 -20 6 -13 3 6 1 26 -5 45 -7 25 -9 27 -10 11z"/>
<path d="M2712 960 c0 -14 2 -19 5 -12 2 6 2 18 0 25 -3 6 -5 1 -5 -13z"/>
<path d="M2656 903 c4 -15 11 -29 16 -31 4 -2 8 -10 8 -18 0 -8 5 -14 10 -14
6 0 10 12 10 26 0 19 -4 25 -15 20 -10 -3 -15 1 -15 14 0 10 -5 22 -10 25 -7
4 -8 -3 -4 -22z"/>
<path d="M3510 910 c0 -5 9 -10 19 -10 11 0 23 5 26 10 4 6 -5 10 -19 10 -14
0 -26 -4 -26 -10z"/>
<path d="M2710 883 c0 -5 5 -15 10 -23 8 -12 10 -11 10 8 0 12 -4 22 -10 22
-5 0 -10 -3 -10 -7z"/>
<path d="M875 890 c-32 -21 -65 -73 -65 -103 0 -11 14 -32 31 -48 58 -54 151
-29 165 45 7 40 -16 92 -46 101 -11 3 -20 11 -20 16 0 15 -33 10 -65 -11z"/>
<path d="M2826 521 c-4 -6 -1 -21 6 -33 l13 -23 3 24 c4 26 -12 49 -22 32z"/>
<path d="M2810 478 c0 -3 7 -21 15 -39 10 -24 14 -28 14 -14 0 11 -6 29 -14
39 -8 11 -15 17 -15 14z"/>
</g>
</svg>
